Coordinates
version=1
nRows=16
nColumns=40
inDegrees=yes

Units are S.I. units (second, meters, Newtons, ...)
Angles are in degrees.

endheader
time	pelvis_tilt	pelvis_list	pelvis_rotation	pelvis_tx	pelvis_ty	pelvis_tz	hip_flexion_r	hip_adduction_r	hip_rotation_r	knee_angle_r	knee_angle_r_beta	ankle_angle_r	subtalar_angle_r	mtp_angle_r	hip_flexion_l	hip_adduction_l	hip_rotation_l	knee_angle_l	knee_angle_l_beta	ankle_angle_l	subtalar_angle_l	mtp_angle_l	lumbar_extension	lumbar_bending	lumbar_rotation	arm_flex_r	arm_add_r	arm_rot_r	elbow_flex_r	pro_sup_r	wrist_flex_r	wrist_dev_r	arm_flex_l	arm_add_l	arm_rot_l	elbow_flex_l	pro_sup_l	wrist_flex_l	wrist_dev_l
     18.95000000	     -6.38755952	     -4.95000580	     -2.72098458	      0.99622347	      0.91366955	      0.41012654	     21.79030690	     -6.31749121	     -3.62490984	     60.18618319	     60.18618319	      0.39143203	    -13.91351605	     -5.24447391	     23.80477690	     -3.97076287	     -2.26333763	     33.53848384	     33.53848384	     18.72554100	    -18.07781794	      9.78376876	    -10.22872887	      4.78053455	      3.63005943	     23.67583392	    -11.67770244	     -9.53744534	     32.96212167	     45.68376405	      0.00000000	      0.00000000	     16.12524043	    -14.86501726	     14.90736538	     28.65653097	     45.16275946	      0.00000000	      0.00000000
     18.96871429	     -6.25083324	     -5.06029045	     -3.40113630	      0.99485383	      0.91305795	      0.40913160	     23.29908520	     -6.03934895	     -3.24639449	     61.76719298	     61.76719298	      0.54652635	    -15.28163040	     -4.81239366	     23.44040451	     -4.17971749	     -2.72892679	     33.94584531	     33.94584531	     19.29005494	    -18.20235797	      9.79125519	    -10.50260105	      5.07292038	      3.51043211	     20.70638506	    -11.75273191	     -9.61230051	     31.32868681	     45.74092465	      0.00000000	      0.00000000	     17.54218812	    -15.35584108	     14.56833064	     29.74102910	     45.24043019	      0.00000000	      0.00000000
     18.98742857	     -6.09268591	     -5.16843300	     -4.10239727	      0.99350912	      0.91259297	      0.40818868	     24.73918011	     -5.75923129	     -2.95886255	     63.07058097	     63.07058097	      0.95602850	    -16.29993723	     -3.91341367	     22.99182209	     -4.38217659	     -3.22332219	     34.28274475	     34.28274475	     19.85783437	    -18.31031207	      9.88120792	    -10.81041001	      5.35351159	      3.55447909	     17.70904580	    -11.99607936	     -9.71171138	     29.46199399	     45.81126653	      0.00000000	      0.00000000	     19.03825257	    -15.81733756	     14.09250698	     31.08152658	     45.33807084	      0.00000000	      0.00000000
     19.00614286	     -5.97744603	     -5.23958476	     -4.79458010	      0.99208350	      0.91231402	      0.40734275	     26.14904966	     -5.50177042	     -2.75471408	     63.96705178	     63.96705178	      1.59847391	    -16.96907681	     -2.77919915	     22.52024996	     -4.54345602	     -3.73859912	     34.48341828	     34.48341828	     20.41293726	    -18.37231394	     10.01099899	    -11.13171823	      5.62124752	      3.65587444	     14.80832705	    -12.25768834	     -9.83916750	     27.53102263	     45.88874894	      0.00000000	      0.00000000	     20.52568955	    -16.25887428	     13.49123860	     32.53569558	     45.45112204	      0.00000000	      0.00000000
     19.02485714	     -5.88128017	     -5.40027028	     -5.50786271	      0.99065542	      0.91246140	      0.40676254	     27.52993014	     -5.04996210	     -2.60571937	     64.50677623	     64.50677623	      3.75809946	    -16.73238119	      2.47638482	     21.99032193	     -4.79691876	     -4.23614813	     34.56337933	     34.56337933	     21.12317297	    -18.38306858	     10.84509791	    -11.43982370	      5.99013979	      3.05683862	     12.87149171	    -12.22181721	    -10.87602043	     24.51957435	     46.14341142	      0.00000000	      0.00000000	     20.98495811	    -17.03350401	     10.84879749	     35.36027416	     45.83972419	      0.00000000	      0.00000000
     19.04357143	     -5.89211603	     -5.45483658	     -6.21951601	      0.98917317	      0.91285992	      0.40640027	     28.72193545	     -4.75578699	     -2.62505505	     64.06547924	     64.06547924	      4.35093042	    -16.92631172	      2.46406526	     21.42848090	     -4.96084227	     -4.82901796	     34.31719739	     34.31719739	     21.37802168	    -18.41571313	     10.79698021	    -11.61807930	      6.21405702	      3.17882425	     10.08021704	    -12.62191660	    -11.08361425	     23.02513986	     46.21599951	      0.00000000	      0.00000000	     22.47757838	    -17.39787844	     10.08890983	     36.59195638	     45.96255500	      0.00000000	      0.00000000
     19.06228571	     -5.96918025	     -5.52629213	     -6.96365585	      0.98764719	      0.91371003	      0.40642393	     29.77805859	     -4.33803357	     -2.67910937	     62.86341261	     62.86341261	      4.98946640	    -16.93876343	      2.40779486	     20.79553490	     -5.17118828	     -5.48757306	     33.80872638	     33.80872638	     21.51089678	    -18.39022706	     10.77510550	    -11.74376179	      6.45634305	      3.27709897	      7.40789537	    -13.01613577	    -11.33157920	     21.79741491	     46.28314979	      0.00000000	      0.00000000	     23.78904036	    -17.80302957	      9.12661662	     38.06374641	     46.10307173	      0.00000000	      0.00000000
     19.08100000	     -6.14704241	     -5.56580766	     -7.70049767	      0.98607850	      0.91489226	      0.40681266	     30.69649571	     -3.88173880	     -2.77578368	     60.87065649	     60.87065649	      5.63858573	    -16.64557539	      1.98320689	     20.18766707	     -5.36906129	     -6.15891715	     33.11176938	     33.11176938	     21.48138410	    -18.29976913	     10.64443573	    -11.78881372	      6.65357951	      3.32630841	      4.86526057	    -13.34528035	    -11.71568630	     20.98207177	     46.35250026	      0.00000000	      0.00000000	     24.82976928	    -18.15287136	      7.63580670	     39.95615519	     46.29730300	      0.00000000	      0.00000000
     19.09971429	     -6.39680603	     -5.63250762	     -8.47335066	      0.98455845	      0.91643367	      0.40765356	     31.35915316	     -3.37219815	     -3.03316565	     57.95636268	     57.95636268	      5.51927650	    -16.33261654	     -0.62597806	     19.45027888	     -5.62958342	     -6.96878276	     32.03842587	     32.03842587	     21.05798482	    -18.26276600	      9.78750795	    -11.75562124	      6.84906924	      2.75518687	      2.49714482	    -13.51175460	    -13.00924473	     21.37535476	     46.51315923	      0.00000000	      0.00000000	     24.81123487	    -18.41016245	      2.64449603	     43.46537892	     46.84336934	      0.00000000	      0.00000000
     19.11842857	     -6.69411556	     -5.64424185	     -9.25158142	      0.98294580	      0.91822388	      0.40888809	     31.87905871	     -2.82579765	     -3.24720647	     54.47012265	     54.47012265	      5.99611754	    -15.24662251	     -1.45631026	     18.72537810	     -5.82519190	     -7.73480105	     30.88187251	     30.88187251	     20.85053234	    -18.14088700	      9.81313160	    -11.63542079	      6.95389705	      2.98128702	      0.16268564	    -13.84214811	    -13.24087894	     20.63305514	     46.56643901	      0.00000000	      0.00000000	     26.03476652	    -18.64695253	      1.53000185	     45.14051937	     46.97540382	      0.00000000	      0.00000000
     19.13714286	     -7.01199279	     -5.64328385	    -10.01510782	      0.98138693	      0.92014492	      0.41051478	     32.09526039	     -2.27723890	     -3.56265326	     50.27352785	     50.27352785	      6.22159652	    -13.67644671	     -2.90308917	     17.92144463	     -6.00860983	     -8.52862931	     29.53210559	     29.53210559	     20.49479854	    -17.97296543	      9.57050830	    -11.48010634	      7.00354645	      3.06351661	     -2.16371895	    -14.06588112	    -13.62048700	     20.70901165	     46.59530978	      0.00000000	      0.00000000	     26.90427989	    -18.88779044	     -0.10160790	     47.44653865	     47.15358153	      0.00000000	      0.00000000
     19.15585714	     -7.39141994	     -5.63417906	    -10.74241874	      0.97987159	      0.92190216	      0.41247022	     32.04336266	     -1.70155247	     -3.93779861	     45.43144038	     45.43144038	      5.89061818	    -11.82458570	     -5.31676842	     17.17122383	     -6.20327333	     -9.33112371	     28.14401976	     28.14401976	     19.88949659	    -17.83746822	      8.74293789	    -11.28120133	      7.08018842	      2.86821846	     -4.53480288	    -14.24699984	    -14.24446715	     21.94326983	     46.59920017	      0.00000000	      0.00000000	     27.27997041	    -19.14099422	     -2.83320756	     50.59422626	     47.41921107	      0.00000000	      0.00000000
     19.17457143	     -7.70599364	     -5.68365574	    -11.39657363	      0.97840136	      0.92370141	      0.41479142	     31.67249872	     -0.97678371	     -4.21292209	     40.28305994	     40.28305994	      5.98583315	     -9.42554085	     -5.20953825	     16.38530580	     -6.43744740	    -10.02665898	     26.86044546	     26.86044546	     19.64977989	    -17.57647144	      8.86650999	    -11.05057460	      7.20121303	      2.68840070	     -6.18568505	    -14.35038107	    -14.35190231	     21.70957565	     46.60705484	      0.00000000	      0.00000000	     28.40956859	    -19.73708053	     -3.47518673	     51.77310534	     47.49433204	      0.00000000	      0.00000000
     19.19328571	     -7.94910556	     -5.61877262	    -11.99720287	      0.97711317	      0.92509879	      0.41732459	     31.04910052	     -0.43942009	     -4.55748332	     35.01772202	     35.01772202	      6.03125300	     -6.27900704	     -5.04294926	     15.54382086	     -6.52758838	    -10.72878016	     25.58926316	     25.58926316	     19.42738826	    -17.30153683	      8.76030230	    -10.85473861	      7.14127111	      2.75285077	     -7.97612070	    -14.36181510	    -14.51259459	     21.79777774	     46.60189871	      0.00000000	      0.00000000	     29.58061415	    -20.06075248	     -4.32022692	     53.56568687	     47.59347974	      0.00000000	      0.00000000
     19.21200000	     -8.28103041	     -5.48074145	    -12.51569704	      0.97591565	      0.92588290	      0.42015743	     30.39030219	      0.07517636	     -4.79682846	     29.77755602	     29.77755602	      5.76615242	     -3.22282884	     -4.35943026	     14.89244126	     -6.56694003	    -11.35446236	     24.46367208	     24.46367208	     19.22203531	    -17.01374350	      8.64086937	    -10.49836395	      7.02590306	      2.74278369	     -9.52335843	    -14.17881162	    -14.65984624	     21.97249368	     46.59068303	      0.00000000	      0.00000000	     30.70207669	    -20.41975381	     -5.05196312	     55.19090970	     47.68363265	      0.00000000	      0.00000000
     19.23071429	     -8.24665787	     -5.22173105	    -12.92675824	      0.97514988	      0.92634830	      0.42289840	     29.48682514	      0.11092374	     -5.65517106	     25.26275511	     25.26275511	      5.92567781	      1.30211763	     -2.61540499	     13.88818932	     -6.38294514	    -12.02598531	     23.35572249	     23.35572249	     18.40445127	    -16.95334481	      6.56530701	    -10.65945036	      6.69689926	      2.62243025	    -12.13442574	    -14.00902173	    -15.39591014	     25.56833365	     46.46250413	      0.00000000	      0.00000000	     30.95853318	    -20.41762614	     -8.01092152	     59.66176401	     47.95823145	      0.00000000	      0.00000000
